<?xml version="1.0"?>
<svg xmlns="http://www.w3.org/2000/svg" xmlns:xlink="http://www.w3.org/1999/xlink" id="&#x56FE;&#x5C42;_1" data-name="&#x56FE;&#x5C42; 1" viewBox="0 0 179.74 179.49">
  <defs>
    <style>.cls-1{fill:#fff;}.cls-2{fill:url(#&#x672A;&#x547D;&#x540D;&#x7684;&#x6E10;&#x53D8;_26);}.cls-3{fill:url(#&#x672A;&#x547D;&#x540D;&#x7684;&#x6E10;&#x53D8;_2);}.cls-4{fill:#4a6cb3;}.cls-5{fill:#103a89;}</style>
    <linearGradient id="&#x672A;&#x547D;&#x540D;&#x7684;&#x6E10;&#x53D8;_26" x1="75.24" y1="98.56" x2="137.59" y2="98.56" gradientUnits="userSpaceOnUse">
      <stop offset="0" stop-color="#6b95ce"/>
      <stop offset="1" stop-color="#4a6cb3"/>
    </linearGradient>
    <linearGradient id="&#x672A;&#x547D;&#x540D;&#x7684;&#x6E10;&#x53D8;_2" x1="6.95" y1="88.09" x2="167.12" y2="88.09" gradientUnits="userSpaceOnUse">
      <stop offset="0" stop-color="#4a6cb3"/>
      <stop offset="0.29" stop-color="#476bb1"/>
      <stop offset="0.5" stop-color="#3e66ad"/>
      <stop offset="0.69" stop-color="#2e5ea5"/>
      <stop offset="0.86" stop-color="#185399"/>
      <stop offset="1" stop-color="#00488d"/>
    </linearGradient>
  </defs>
  <path class="cls-1" d="M177,88.81c0-58.67-57.2-104-118.87-83.21A84.09,84.09,0,0,0,5.48,58.27C-15.29,119.94,30,177.14,88.69,177.14a88.22,88.22,0,0,0,26.1-3.92c4.52-1.4,9.48-2.53,14.14-1.74l16.52,7.46c11,2.29,19.48-2.65,20.12-13.42l-2.14-24.37a14.16,14.16,0,0,1,.21-4.31c.61-2.77,1.82-4.12,3.56-7.52l.05-.09A87.86,87.86,0,0,0,177,88.81Z"/>
  <path class="cls-2" d="M75.24,84.3a37.74,37.74,0,0,1,11.32,4.25c5.49,3.24,10.51,6.28,12.31,6.91a19.77,19.77,0,0,0,11.21,1,77.26,77.26,0,0,1,16.67-1c3.09.3,5.6.47,7.93,1.62s2.91,2.05,2.91,2.64-1.17,4.59-1.17,4.59l-6.11,7.17-21,1.3L80.39,101.5Z"/>
  <path class="cls-3" d="M143.43,168.36a17,17,0,0,1-6.88-1.49l-.46-.23-9.73-5.06a7.66,7.66,0,0,0-5.3-.68,21.87,21.87,0,0,0-3.47,1.15l-.41.17c-11.66,4.52-22.23,6.32-33.27,5.69a83,83,0,0,1-53-23.21A77.85,77.85,0,0,1,7,92.19a81.13,81.13,0,0,1,8-38.88,8,8,0,1,1,14.41,7A64.9,64.9,0,0,0,23,91.48C24.47,124,51,150,84.83,151.92c8.62.5,17-1,26.39-4.57a39.37,39.37,0,0,1,6.1-2,23.64,23.64,0,0,1,16.43,2l6.86,3.57-1.56-12.89a22.7,22.7,0,0,1,3.25-17.45l.18-.3a60.33,60.33,0,0,0,8.4-36.64c-2.57-33.75-29.42-59.48-62.47-59.85a64.49,64.49,0,0,0-43.33,16,8,8,0,1,1-10.55-12,80.71,80.71,0,0,1,54.06-20c41.41.46,75.06,32.55,78.26,74.64a75.67,75.67,0,0,1-10.54,45.93l-.4.66a6.93,6.93,0,0,0-1.13,6l.13.75,2.17,18.2a13.44,13.44,0,0,1-5.72,12A14,14,0,0,1,143.43,168.36Z"/>
  <circle class="cls-4" cx="42.79" cy="73.87" r="6.05"/>
  <path class="cls-5" d="M73.15,78.24a27.31,27.31,0,0,1-16.44-5c-8.86-6.54-8.49-12.09-8.57-15.48A12.21,12.21,0,0,1,53,47.1c4.58-3.63,8.73-3.19,12.28-.43,3.83,3,2.26,8.62,1.59,12.25-.74,4-1.25,6.46-.69,9.34C67.19,73.63,67.77,75,73.15,78.24Z"/>
  <path class="cls-5" d="M40.07,113.5c-2.68-4.69-5.82-11.87-1.33-17.19s11.5-12.26,24.8-12.63c16.4-.44,18.29,2.26,30.22,13.51s18,13.32,29.66,13.87c10,.46,13.22-7.87,14.17-11.27-.32,6.3-4.72,20.34-19.37,32.44-10,8.24-38.84,13.56-58.85.73C44.54,123.47,40.8,114.78,40.07,113.5Z"/>
</svg>
